<svg xmlns="http://www.w3.org/2000/svg" width="392" height="78" viewBox="0 0 392 78" fill="none">
<g clip-path="url(#clip0_262_1317)">
<path d="M-75 805.69C-49.0294 816.378 -22.4003 822 4.75053 822C44.3415 822 82.8225 810.045 119.771 787.862C148.208 770.789 175.115 763.116 200.909 763.116C226.702 763.116 253.609 770.789 282.045 787.862C318.994 810.045 357.475 822 397.068 822C436.659 822 475.14 810.045 512.089 787.862C540.526 770.789 567.432 763.116 593.227 763.116C619.02 763.116 645.926 770.789 674.363 787.862C711.312 810.045 749.793 822 789.386 822C828.977 822 867.458 810.045 904.407 787.862C932.843 770.789 959.75 763.116 985.545 763.116C1011.34 763.116 1038.24 770.789 1066.68 787.862C1103.63 810.045 1142.11 822 1181.7 822C1221.29 822 1259.78 810.045 1296.72 787.862C1325.16 770.789 1352.07 763.116 1377.86 763.116C1403.65 763.116 1430.56 770.789 1459 787.862C1495.95 810.045 1534.43 822 1574.02 822C1613.61 822 1652.09 810.045 1689.04 787.862C1717.48 770.789 1744.39 763.116 1770.18 763.116C1794.06 763.116 1818.88 769.691 1845 784.21V14.3452C1820.59 4.93433 1795.62 0 1770.18 0C1730.59 0 1692.11 11.9546 1655.16 34.1379C1626.72 51.2109 1599.81 58.8845 1574.02 58.8845C1548.23 58.8845 1521.32 51.2109 1492.88 34.1379C1455.93 11.9546 1417.45 0 1377.86 0C1338.27 0 1299.79 11.9546 1262.84 34.1379C1234.4 51.2109 1207.5 58.8845 1181.7 58.8845C1155.91 58.8845 1129 51.2109 1100.57 34.1379C1063.62 11.9546 1025.14 0 985.545 0C945.952 0 907.471 11.9546 870.522 34.1379C842.085 51.2109 815.179 58.8845 789.386 58.8845C763.591 58.8845 736.685 51.2109 708.248 34.1379C671.299 11.9546 632.818 0 593.227 0C553.634 0 515.153 11.9546 478.204 34.1379C449.767 51.2109 422.861 58.8845 397.068 58.8845C371.273 58.8845 344.367 51.2109 315.93 34.1379C278.981 11.9546 240.5 0 200.909 0C161.316 0 122.835 11.9546 85.8865 34.1379C57.4498 51.2109 30.5433 58.8845 4.75053 58.8845C-20.624 58.8845 -47.0753 51.4585 -75 34.9639V805.69Z" fill="#F0E9DA"/>
</g>
<defs>
<clipPath id="clip0_262_1317">
<rect width="392" height="78" fill="white" transform="matrix(1 0 0 -1 0 78)"/>
</clipPath>
</defs>
</svg>