<svg width="60" height="26" viewBox="0 0 60 26" fill="none" xmlns="http://www.w3.org/2000/svg">
<path fill-rule="evenodd" clip-rule="evenodd" d="M42.9694 13.8985C42.9897 13.6016 43 13.302 43 13C43 12.7604 42.9935 12.5222 42.9807 12.2858L59.6563 9.12129L60 11.0469L42.9694 13.8985ZM18.0278 18.0747L42.9694 13.8985C42.5079 20.6591 36.8777 26 30 26C24.6208 26 20.0047 22.7329 18.0278 18.0747ZM17.6569 17.0914C17.7676 17.4254 17.8914 17.7534 18.0278 18.0747L0.557149 21L0.442938 20.3581L17.6569 17.0914ZM17.2373 15.4854L42.3844 9.03549C42.7149 10.0687 42.9197 11.1581 42.9807 12.2858L17.6569 17.0914C17.4841 16.57 17.3435 16.0338 17.2373 15.4854ZM17.0807 14.4566C17.0274 13.9784 17 13.4924 17 13C17 5.8203 22.8203 0 30 0C35.2306 0 39.7396 3.08908 41.8024 7.54241L17.0807 14.4566ZM17.0807 14.4566C17.1194 14.8038 17.1718 15.147 17.2373 15.4854L0.168653 19.8634L0 19.2337L17.0807 14.4566ZM41.8024 7.54241L58.0438 3L58.5497 4.88927L42.3844 9.03549C42.2206 8.52325 42.0258 8.02483 41.8024 7.54241Z" fill="#E57F45"/>
</svg>
